<?xml version="1.0" encoding="UTF-8" standalone="no"?>
<svg xmlns="http://www.w3.org/2000/svg" width="128" height="128" viewBox="0 0 128 128">
  <rect width="128" height="128" fill="#9C5FFF" rx="16" ry="16"/>
  <path d="M64 32C44 32 28 48 28 64C28 80 44 96 64 96C84 96 100 80 100 64C100 48 84 32 64 32ZM64 88C48 88 36 77.6 36 64C36 50.4 48 40 64 40C80 40 92 50.4 92 64C92 77.6 80 88 64 88Z" fill="white"/>
  <circle cx="64" cy="64" r="16" fill="#9C5FFF"/>
  <path d="M60 56L72 64L60 72Z" fill="white"/>
</svg>
